<svg width="31" height="29" viewBox="0 0 31 29" fill="none" xmlns="http://www.w3.org/2000/svg">
<path d="M27.4128 23.2605H27.1278C27.0112 23.2235 26.9032 23.1646 26.8101 23.0868C26.7169 23.0089 26.6406 22.914 26.5853 22.8073C26.5301 22.7006 26.4968 22.5842 26.4879 22.4651C26.4789 22.3458 26.4942 22.2261 26.5329 22.1126C27.0685 20.4393 27.193 18.6667 26.8961 16.9379C26.5995 15.2092 25.8898 13.5726 24.8246 12.1605C23.7594 10.7485 22.3685 9.60049 20.7644 8.80927C19.1601 8.01804 17.3875 7.60578 15.5897 7.60578C13.792 7.60578 12.0193 8.01804 10.4151 8.80927C8.81091 9.60049 7.42004 10.7485 6.35486 12.1605C5.28968 13.5726 4.58006 15.2092 4.28331 16.9379C3.98656 18.6667 4.111 20.4393 4.64658 22.1126C4.69859 22.2286 4.72513 22.3539 4.72446 22.4804C4.72379 22.6071 4.69594 22.732 4.6427 22.8475C4.58946 22.9629 4.51201 23.0662 4.41533 23.1507C4.31867 23.2351 4.20492 23.2989 4.08143 23.3379C3.95794 23.3769 3.82743 23.3903 3.69832 23.3771C3.56922 23.364 3.44437 23.3246 3.33181 23.2615C3.21927 23.1984 3.12151 23.1131 3.04486 23.0109C2.96821 22.9088 2.91434 22.7922 2.88675 22.6684C2.30743 20.8818 2.13145 18.994 2.37088 17.1348C2.61031 15.2755 3.25946 13.4889 4.27382 11.8972C5.28816 10.3057 6.64369 8.94689 8.24735 7.91417C9.85102 6.88147 11.6649 6.19927 13.5644 5.9144C15.4639 5.62954 17.4042 5.74875 19.252 6.26387C21.0999 6.77897 22.8116 7.67777 24.2695 8.89859C25.7276 10.1194 26.8974 11.6333 27.6989 13.3365C28.5002 15.0396 28.9142 16.8916 28.9124 18.7655C28.9124 20.0897 28.7034 21.4062 28.2927 22.6684C28.2279 22.8445 28.1082 22.9963 27.9504 23.1025C27.7925 23.2087 27.6045 23.2639 27.4128 23.2605Z" fill="#F2EDE7"/>
<path d="M27.4128 23.2605H3.76665C3.52013 23.2605 3.28371 23.165 3.1094 22.995C2.93509 22.8251 2.83716 22.5946 2.83716 22.3542C2.83716 22.1139 2.93509 21.8834 3.1094 21.7135C3.28371 21.5435 3.52013 21.448 3.76665 21.448H27.4128C27.6593 21.448 27.8958 21.5435 28.07 21.7135C28.2444 21.8834 28.3423 22.1139 28.3423 22.3542C28.3423 22.5946 28.2444 22.8251 28.07 22.995C27.8958 23.165 27.6593 23.2605 27.4128 23.2605Z" fill="#F2EDE7"/>
<path d="M15.5898 19.6353C15.4677 19.6359 15.3466 19.6126 15.2338 19.5671C15.121 19.5214 15.0187 19.4542 14.9329 19.3695C14.7588 19.1996 14.6611 18.9693 14.6611 18.7291C14.6611 18.489 14.7588 18.2585 14.9329 18.0887L19.8902 13.2553C20.0674 13.1298 20.2843 13.0694 20.5028 13.0846C20.7213 13.0998 20.9271 13.1897 21.0843 13.3386C21.2413 13.4873 21.3394 13.6855 21.3614 13.8979C21.3832 14.1105 21.3274 14.3236 21.2039 14.4999L16.2466 19.3332C16.1639 19.4246 16.063 19.4984 15.9501 19.5504C15.8372 19.6023 15.7146 19.6312 15.5898 19.6353Z" fill="#F2EDE7"/>
</svg>
