<svg width="33" height="34" viewBox="0 0 33 34" fill="none" xmlns="http://www.w3.org/2000/svg">
<path fill-rule="evenodd" clip-rule="evenodd" d="M8.68061 17.6559C8.52508 13.1638 11.8384 9.38568 16.0889 9.20831C20.3394 9.38568 23.6527 13.1638 23.4972 17.6559C23.4972 19.5216 25.4156 21.3392 25.4719 23.2092C25.4719 23.2357 25.4719 23.2621 25.4719 23.2886C25.5134 24.4866 24.6296 25.4942 23.4959 25.5411H19.2166C19.2206 26.4591 18.8931 27.3442 18.301 28.016C17.7316 28.6693 16.9294 29.0411 16.0889 29.0411C15.2483 29.0411 14.4463 28.6693 13.8769 28.016C13.2847 27.3442 12.9573 26.4591 12.9612 25.5411H8.68061C7.54695 25.4942 6.66302 24.4866 6.70453 23.2886C6.70453 23.2621 6.70453 23.2357 6.70453 23.2092C6.76218 21.3449 8.68061 19.5231 8.68061 17.6559Z" stroke="#12130F" stroke-width="2" stroke-linecap="round" stroke-linejoin="round"/>
<path d="M12.9609 24.4786C12.3914 24.4786 11.9297 24.9543 11.9297 25.5411C11.9297 26.1279 12.3914 26.6036 12.9609 26.6036V24.4786ZM19.2163 26.6036C19.7858 26.6036 20.2476 26.1279 20.2476 25.5411C20.2476 24.9543 19.7858 24.4786 19.2163 24.4786V26.6036ZM17.4292 7.4375C17.9988 7.4375 18.4605 6.9618 18.4605 6.375C18.4605 5.7882 17.9988 5.3125 17.4292 5.3125V7.4375ZM14.748 5.3125C14.1785 5.3125 13.7167 5.7882 13.7167 6.375C13.7167 6.9618 14.1785 7.4375 14.748 7.4375V5.3125ZM12.9609 26.6036H19.2163V24.4786H12.9609V26.6036ZM17.4292 5.3125H14.748V7.4375H17.4292V5.3125Z" fill="#12130F"/>
</svg>
