<svg width="84" height="83" viewBox="0 0 84 83" fill="none" xmlns="http://www.w3.org/2000/svg">
<path d="M60.0198 20.8528V25.4411M60.0198 25.4411V30.0294M60.0198 25.4411H64.5248M60.0198 25.4411H55.5149M51.0099 32.3235C51.0099 37.3915 46.9759 41.5001 42 41.5001C37.024 41.5001 32.9901 37.3915 32.9901 32.3235C32.9901 27.2554 37.024 23.1469 42 23.1469C46.9759 23.1469 51.0099 27.2554 51.0099 32.3235ZM35.9581 46.0883H48.042C49.1289 46.0883 49.6722 46.0883 50.1582 46.1941C51.8406 46.56 53.2955 47.8459 54.1104 49.6879C54.346 50.2199 54.5179 50.8521 54.8616 52.1169C55.2745 53.6363 55.4811 54.3961 55.509 55.0089C55.6074 57.1709 54.4602 59.123 52.7569 59.6919C52.2742 59.8532 51.6212 59.8532 50.3152 59.8532H33.6849C32.3789 59.8532 31.7259 59.8532 31.2431 59.6919C29.5397 59.123 28.3925 57.1709 28.491 55.0089C28.519 54.3961 28.7254 53.6363 29.1384 52.1169C29.4821 50.8521 29.654 50.2199 29.8895 49.6879C30.7045 47.8459 32.1593 46.56 33.8417 46.1941C34.3278 46.0883 34.8712 46.0883 35.9581 46.0883Z" stroke="#F2EDE7" stroke-width="1.55" stroke-linecap="round" stroke-linejoin="round"/>
<path d="M84 41.5C84 64.4198 65.196 83 42 83C18.804 83 0 64.4198 0 41.5C0 18.5802 18.804 0 42 0C65.196 0 84 18.5802 84 41.5ZM1.63754 41.5C1.63754 63.5262 19.7084 81.382 42 81.382C64.2916 81.382 82.3625 63.5262 82.3625 41.5C82.3625 19.4738 64.2916 1.61804 42 1.61804C19.7084 1.61804 1.63754 19.4738 1.63754 41.5Z" fill="#F2EDE7"/>
</svg>
