<svg width="31" height="29" viewBox="0 0 31 29" fill="none" xmlns="http://www.w3.org/2000/svg">
<g clip-path="url(#clip0_5_173)">
<path d="M13.3998 4.13946C12.2757 3.0503 10.7814 2.45056 9.19217 2.45056C7.60228 2.45056 6.108 3.0503 4.98455 4.13946C2.66457 6.38709 2.66457 10.0448 4.98455 12.2931C6.108 13.3822 7.60228 13.9819 9.19217 13.9819C10.7814 13.9819 12.2757 13.3822 13.3998 12.2931C15.7198 10.0448 15.7198 6.38709 13.3998 4.13946ZM12.3031 11.6276C11.4429 12.3659 10.3509 12.7736 9.19217 12.7736C8.04442 12.7736 6.96292 12.3744 6.10678 11.6501V11.0408C6.10678 10.4083 6.54581 9.83066 7.18274 9.60764L9.19217 11.5544L11.2016 9.60764C11.8452 9.83331 12.3031 10.4195 12.3031 11.034V11.6276ZM11.4677 8.42084L10.8466 8.24295L9.19217 9.8457L7.53774 8.24295L6.91482 8.42143C5.97958 8.69301 5.26751 9.40007 4.99003 10.2562C4.10947 8.54922 4.39926 6.41546 5.86626 4.99378C6.75467 4.13297 7.93536 3.65889 9.19217 3.65889C10.4484 3.65889 11.6297 4.13297 12.5181 4.99378C13.9758 6.4065 14.2702 8.52196 13.41 10.2235C13.1219 9.38526 12.4049 8.69307 11.4677 8.42084Z" fill="#F2EDE7"/>
<path d="M9.19216 4.33215C8.04009 4.33215 7.10236 5.24047 7.10236 6.35706C7.10236 7.47364 8.04009 8.38196 9.19216 8.38196C10.3442 8.38196 11.282 7.47364 11.282 6.35706C11.282 5.24047 10.3442 4.33215 9.19216 4.33215ZM9.19216 7.17362C8.72756 7.17362 8.34942 6.80723 8.34942 6.35706C8.34942 5.90688 8.72756 5.54049 9.19216 5.54049C9.65676 5.54049 10.0349 5.90688 10.0349 6.35706C10.0349 6.80723 9.65676 7.17362 9.19216 7.17362Z" fill="#F2EDE7"/>
<path d="M30.7308 24.7708V0H0.80127V24.7708H10.1542V27.7917H7.66011V29H23.8719V27.7917H21.3778V24.7708H30.7308ZM2.04833 1.20833H29.4837V19.9375H2.04833V1.20833ZM20.1307 27.7917H11.4013V24.7708H20.1307V27.7917ZM2.04833 23.5625V21.1458H29.4837V23.5625H2.04833Z" fill="#F2EDE7"/>
<path d="M14.5215 15.1041H3.8653V16.3125H14.5215V15.1041Z" fill="#F2EDE7"/>
<path d="M12.6509 17.5209H5.7359V18.7292H12.6509V17.5209Z" fill="#F2EDE7"/>
<path d="M26.4939 4.13946C25.3698 3.0503 23.8756 2.45056 22.2863 2.45056C20.6964 2.45056 19.2021 3.0503 18.0787 4.13946C15.7587 6.38709 15.7587 10.0448 18.0787 12.2931C19.2021 13.3822 20.6964 13.9819 22.2863 13.9819C23.8756 13.9819 25.3698 13.3822 26.4939 12.2931C28.8139 10.0448 28.8139 6.38709 26.4939 4.13946ZM25.3972 11.6276C24.537 12.3659 23.4451 12.7736 22.2863 12.7736C21.1385 12.7736 20.057 12.3744 19.2009 11.6501V11.0408C19.2009 10.4083 19.6399 9.83066 20.2769 9.60764L22.2863 11.5544L24.2957 9.60764C24.9393 9.83331 25.3972 10.4195 25.3972 11.034V11.6276ZM24.5618 8.42084L23.9407 8.24295L22.2863 9.8457L20.6319 8.24295L20.0089 8.42143C19.0737 8.69301 18.3616 9.40007 18.0841 10.2562C17.2036 8.54922 17.4934 6.41546 18.9604 4.99378C19.8488 4.13297 21.0295 3.65889 22.2863 3.65889C23.5425 3.65889 24.7238 4.13297 25.6122 4.99378C27.0699 6.4065 27.3643 8.52196 26.5041 10.2235C26.216 9.38526 25.499 8.69307 24.5618 8.42084Z" fill="#F2EDE7"/>
<path d="M22.2863 4.33215C21.1342 4.33215 20.1965 5.24047 20.1965 6.35706C20.1965 7.47364 21.1342 8.38196 22.2863 8.38196C23.4383 8.38196 24.3761 7.47364 24.3761 6.35706C24.3761 5.24047 23.4383 4.33215 22.2863 4.33215ZM22.2863 7.17362C21.8217 7.17362 21.4435 6.80723 21.4435 6.35706C21.4435 5.90688 21.8217 5.54049 22.2863 5.54049C22.7509 5.54049 23.129 5.90688 23.129 6.35706C23.129 6.80723 22.7509 7.17362 22.2863 7.17362Z" fill="#F2EDE7"/>
<path d="M27.6156 15.1041H16.9594V16.3125H27.6156V15.1041Z" fill="#F2EDE7"/>
<path d="M25.745 17.5209H18.83V18.7292H25.745V17.5209Z" fill="#F2EDE7"/>
</g>
<defs>
<clipPath id="clip0_5_173">
<rect width="29.9295" height="29" fill="white" transform="translate(0.80127)"/>
</clipPath>
</defs>
</svg>
