<svg width="30" height="30" viewBox="0 0 30 30" fill="none" xmlns="http://www.w3.org/2000/svg">
<path d="M9.07426 14.0065L3.18204 16.9638C2.45623 17.328 2.00005 18.0572 2.00005 18.8531V19.9583C2.00005 21.1319 2.97585 22.0833 4.17964 22.0833C4.58087 22.0833 4.90613 22.4004 4.90613 22.7916C4.90613 23.1828 4.58087 23.4999 4.17964 23.4999C2.17339 23.4999 0.547058 21.9143 0.547058 19.9583V18.8531C0.547058 17.5266 1.30736 16.3113 2.51704 15.7042L7.39582 13.2556C5.83866 11.9318 4.90603 10.0024 4.90603 7.91658C4.90603 4.00457 8.15866 0.833252 12.171 0.833252C14.6071 0.833252 16.8398 2.01184 18.1834 3.93936C18.4089 4.26291 18.3228 4.70346 17.9909 4.92336C17.6591 5.14326 17.2072 5.05924 16.9817 4.73569C15.9058 3.19221 14.1207 2.24992 12.171 2.24992C8.96113 2.24992 6.35902 4.78697 6.35902 7.91658C6.35902 9.91651 7.42959 11.7355 9.14916 12.7582C9.49169 12.9619 9.59999 13.3978 9.39104 13.7318C9.31282 13.8568 9.20124 13.9498 9.07426 14.0065ZM15.0207 20.0529L9.08962 22.6815C8.31156 23.0263 7.81202 23.7827 7.81202 24.616V25.6249C7.81202 26.7985 8.7878 27.7499 9.9915 27.7499H25.9744C27.1781 27.7499 28.1539 26.7985 28.1539 25.6249V24.616C28.1539 23.7827 27.6544 23.0263 26.8763 22.6815L20.9452 20.0529C20.0405 20.4473 19.038 20.6666 17.983 20.6666C16.9279 20.6666 15.9254 20.4473 15.0207 20.0529ZM13.5109 19.1659C11.8108 17.8694 10.718 15.8508 10.718 13.5833C10.718 9.67124 13.9706 6.49992 17.983 6.49992C21.9953 6.49992 25.2479 9.67124 25.2479 13.5833C25.2479 15.8508 24.1551 17.8694 22.455 19.1659L27.4775 21.3918C28.7743 21.9665 29.6069 23.2272 29.6069 24.616V25.6249C29.6069 27.5809 27.9806 29.1666 25.9744 29.1666H9.9915C7.98534 29.1666 6.35902 27.5809 6.35902 25.6249V24.616C6.35902 23.2272 7.1916 21.9665 8.48837 21.3918L13.5109 19.1659ZM17.983 19.2499C21.1928 19.2499 23.7949 16.7129 23.7949 13.5833C23.7949 10.4536 21.1928 7.91658 17.983 7.91658C14.7731 7.91658 12.171 10.4536 12.171 13.5833C12.171 16.7129 14.7731 19.2499 17.983 19.2499Z" fill="#F0ECE6"/>
</svg>
